<?xml version="1.0" encoding="UTF-8"?>
<!DOCTYPE svg PUBLIC "-//W3C//DTD SVG 1.1//EN" "http://www.w3.org/Graphics/SVG/1.1/DTD/svg11.dtd">
<!-- Creator: CorelDRAW 2018 (64-Bit) -->
<svg xmlns="http://www.w3.org/2000/svg" xml:space="preserve" width="307px" height="307px" version="1.1" style="shape-rendering:geometricPrecision; text-rendering:geometricPrecision; image-rendering:optimizeQuality; fill-rule:evenodd; clip-rule:evenodd"
viewBox="0 0 307 307"
 xmlns:xlink="http://www.w3.org/1999/xlink">
 <defs>
  <style type="text/css">
   <![CDATA[
    .fil0 {fill:white}
   ]]>
  </style>
 </defs>
 <g id="Слой_x0020_1">
  <metadata id="CorelCorpID_0Corel-Layer"/>
  <path class="fil0" d="M110.43 145.51l-9.26 31.53c-18.06,-4.28 -32.36,-20 -34.35,-38.06 -2.46,-22.16 7.87,-37.75 26.79,-46.38 15.52,-7.08 49.24,-3.66 68.49,-3.66 24.45,0 48.91,0 73.36,0l0 34.24 -70.92 0 0 25.68c0,0 54.97,-0.4 54.97,-0.4 0,0 0.06,34.64 0.06,34.64 0,0 -54.37,0.38 -54.37,0.38 0,0 -0.66,46.08 -0.66,46.08l-36.68 0 0 -107.6c-10.66,0 -20.27,0.17 -23.77,7.29 -2.45,5 -2.86,11.18 6.34,16.26zm43.11 -144.45c84.33,0 152.69,68.36 152.69,152.69 0,84.33 -68.36,152.69 -152.69,152.69 -84.33,0 -152.69,-68.36 -152.69,-152.69 0,-84.33 68.36,-152.69 152.69,-152.69z"/>
 </g>
</svg>
