<svg xmlns="http://www.w3.org/2000/svg" viewBox="0 0 512 156.54"><defs><style>.cls-1{fill:#36a9e1;}.cls-2{fill:#95c11f;}.cls-3{fill:#cbbba0;}.cls-4{fill:#02505d;}</style></defs><title>Ресурс 5knt</title><g id="Слой_2" data-name="Слой 2"><g id="Слой_1-2" data-name="Слой 1"><polygon class="cls-1" points="189.37 82.12 133.67 105.38 189.37 128.63 245.06 105.38 189.37 82.12"/><polygon class="cls-2" points="55.7 82.12 0 105.38 55.7 128.63 111.39 105.38 55.7 82.12"/><polygon class="cls-3" points="66.84 133.28 122.53 156.54 178.23 133.28 122.53 110.03 66.84 133.28"/><polygon class="cls-4" points="127.67 57.03 189.37 105.38 129.9 44.6 129.9 40.64 115.17 40.64 115.17 44.6 55.7 105.38 117.39 57.03 122.53 133.28 127.67 57.03"/><path class="cls-4" d="M126.27,26.37a1.21,1.21,0,0,0,1.21-1.21V8.46a1.21,1.21,0,0,0-1.21-1.21H119a1.21,1.21,0,0,0-1.21,1.21v16.7A1.21,1.21,0,0,0,119,26.37Zm-3.63-16.7a3,3,0,1,1-3,3A3,3,0,0,1,122.64,9.67Z"/><path class="cls-4" d="M106.24,15.72h1.89v2.83a2.42,2.42,0,0,0,.26,1.08l3.37,6.74h3.63V17.55A2.42,2.42,0,0,0,115,16.2l-1.61-2.41a2.42,2.42,0,0,1-.41-1.34v-7a.6.6,0,0,1,.6-.6h18.13a.6.6,0,0,1,.6.6v7a2.42,2.42,0,0,1-.41,1.34L130.3,16.2a2.42,2.42,0,0,0-.41,1.34v8.83h3.63l3.37-6.74a2.42,2.42,0,0,0,.26-1.08V15.72H139a1.21,1.21,0,0,0,1.21-1.21V10.88A1.21,1.21,0,0,0,139,9.67h-1.89V1.21A1.21,1.21,0,0,0,135.94,0h-26.6a1.21,1.21,0,0,0-1.21,1.21V9.67h-1.89A1.21,1.21,0,0,0,105,10.88v3.63A1.21,1.21,0,0,0,106.24,15.72Z"/><rect class="cls-4" x="111.76" y="28.79" width="21.76" height="9.43" rx="1.21" ry="1.21"/><path class="cls-4" d="M278.65,90.32H266.08V37.13h11.4q5.18,0,7,2.14,1.66,2,1.66,7.32v7.32q0,3.52-1.21,4.94T280.31,61q3.52.55,4.94,2.45A9.22,9.22,0,0,1,286.67,69V80q0,8.64-4.35,9.88A13.6,13.6,0,0,1,278.65,90.32Zm-4.77-47.11V58.13h1.91q2.86,0,2.86-4.15v-7q0-3.73-2.79-3.73Zm0,21.14V84h1.82q3.15,0,3.15-4.15V68.77q0-4.42-3.36-4.42Z"/><path class="cls-4" d="M308.29,90.32h-6.42l-.55-2.9a6.39,6.39,0,0,1-5.73,3.18q-3.18,0-4.21-2.07a12.88,12.88,0,0,1-.69-5V72.29a7.42,7.42,0,0,1,.86-4Q292.4,67,296,65.1t4.46-3.32q.9-1.45.9-5.25a14,14,0,0,0-.14-2.56,1.68,1.68,0,0,0-1.73-1.52q-1.8,0-1.8,2.35v7.88h-7V54.26q0-3.87,2.56-5.53,2-1.24,6.22-1.24t6.36,1.38q2.49,1.66,2.49,5.67Zm-7-7.46V68.28a15,15,0,0,0-2.76,1.86,4.25,4.25,0,0,0-.9,3v9.67q0,1.93,1.73,1.94Q301.31,84.72,301.31,82.86Z"/><path class="cls-4" d="M312.71,47.77h7V84.38h3.66V47.77h6.22V84.38h3.52V47.77h7V90.32H312.71Z"/><path class="cls-4" d="M362.17,37.13h20.52V90.32h-8V44.24h-4.49V90.32h-8Z"/><path class="cls-4" d="M404.72,90.32H398.3l-.55-2.9A6.39,6.39,0,0,1,392,90.59q-3.18,0-4.21-2.07a12.88,12.88,0,0,1-.69-5V72.29a7.42,7.42,0,0,1,.86-4q.86-1.35,4.42-3.21t4.46-3.32q.9-1.45.9-5.25a14.13,14.13,0,0,0-.14-2.56,1.68,1.68,0,0,0-1.73-1.52q-1.8,0-1.8,2.35v7.88h-7V54.26q0-3.87,2.56-5.53,2-1.24,6.22-1.24t6.36,1.38q2.49,1.66,2.49,5.67Zm-7-7.46V68.28A15,15,0,0,0,395,70.15a4.24,4.24,0,0,0-.9,3v9.67q0,1.93,1.73,1.94A1.68,1.68,0,0,0,397.75,82.86Z"/><path class="cls-4" d="M416.26,86.93v13h-7.19V47.77h7v2.9h.21a6.18,6.18,0,0,1,5.59-3.18q3,0,4.08,1.8a8,8,0,0,1,1,4.49V82.86a12.2,12.2,0,0,1-.83,5.18q-1.24,2.28-4.56,2.28A5.77,5.77,0,0,1,416.26,86.93Zm3.32-30.81a5.45,5.45,0,0,0-.21-1.93,1.53,1.53,0,0,0-1.59-.83q-1.73,0-1.73,2.76V81.61q0,3,1.8,3t1.73-2.49Z"/><path class="cls-4" d="M442,90.32h-7.11V53.71h-5.32V47.77h17.75v5.94H442Z"/><path class="cls-4" d="M467.93,90.32h-7.11V70.22h-3.45v20.1h-7.12V47.77h7.12V64.27h3.45V47.77h7.11Z"/><path class="cls-4" d="M490,70H479.33V83.2q0,2.07,1.73,2.07t1.8-2.07V74H490V83.2q0,4.21-2.42,5.94-2.07,1.45-6.49,1.45t-6.49-1.45q-2.35-1.66-2.35-5.94V54.88q0-4.28,2.35-5.94,2-1.45,6.49-1.45t6.49,1.45Q490,50.67,490,54.88ZM479.33,54.88V65h3.52V54.88q0-2.07-1.8-2.07T479.33,54.88Z"/><path class="cls-4" d="M501.36,86.93v13h-7.19V47.77h7v2.9h.21A6.18,6.18,0,0,1,507,47.49q3,0,4.08,1.8a8,8,0,0,1,1,4.49V82.86a12.2,12.2,0,0,1-.83,5.18q-1.24,2.28-4.56,2.28A5.77,5.77,0,0,1,501.36,86.93Zm3.32-30.81a5.45,5.45,0,0,0-.21-1.93,1.53,1.53,0,0,0-1.59-.83q-1.73,0-1.73,2.76V81.61q0,3,1.8,3t1.73-2.49Z"/><path class="cls-4" d="M275.12,111.2v13.06h1.06v6.2H273.9V126.6h-7.82V111.2h2.52v13.06h4.05V111.2Z"/><path class="cls-4" d="M282.24,124.54a1.6,1.6,0,0,0,1.37-.61,3.08,3.08,0,0,0,.52-1.7l2.49.47a4.45,4.45,0,0,1-1.23,3.05,4.65,4.65,0,0,1-3.34,1.06,4.92,4.92,0,0,1-1.71-.26,4,4,0,0,1-1.21-.69,3.44,3.44,0,0,1-.79-1,4.07,4.07,0,0,1-.42-1.06,7.15,7.15,0,0,1-.16-.93q-.06-.56-.09-1.23t0-1.36c0-.46,0-.88,0-1.28s0-1,0-1.57,0-1,.08-1.51.09-.92.16-1.32a5,5,0,0,1,.25-1,3.93,3.93,0,0,1,1.44-1.93,4.67,4.67,0,0,1,2.75-.72,4,4,0,0,1,3.32,1.28,5.48,5.48,0,0,1,1,3.52v3.8H280q0,1,0,2a6.87,6.87,0,0,0,.2,1.53A1.85,1.85,0,0,0,282.24,124.54Zm1.95-6.95v-1.31a8,8,0,0,0-.08-1.14,2.84,2.84,0,0,0-.3-1,1.64,1.64,0,0,0-.61-.64,2,2,0,0,0-1-.23,2.09,2.09,0,0,0-1,.26,1.84,1.84,0,0,0-.75,1,4.77,4.77,0,0,0-.22,1.18q-.06.75-.09,1.84Z"/><path class="cls-4" d="M295.78,126.6v-6.82h-4.05v6.82H289.2V111.2h2.52v6.48h4.05V111.2h2.52V126.6Z"/><path class="cls-4" d="M305.47,113.38V126.6H303V113.38h-3.24V111.2h9v2.18Z"/><path class="cls-4" d="M315.08,111a5.64,5.64,0,0,1,1,.11,2.82,2.82,0,0,1,1.13.5,3.6,3.6,0,0,1,1,1.14,5.35,5.35,0,0,1,.59,2q.09.93.11,2t0,1.93q0,1.68-.08,3.16a9.12,9.12,0,0,1-.46,2.57,3.73,3.73,0,0,1-1.19,1.73,3.56,3.56,0,0,1-2.26.64,3.43,3.43,0,0,1-1.55-.33,2.89,2.89,0,0,1-1.09-1h-.06v7.1h-2.46V111.17h2.46v1.18l.06,0a4,4,0,0,1,1.05-1A3.37,3.37,0,0,1,315.08,111Zm-.83,2.4a1.85,1.85,0,0,0-1.56.68,2.77,2.77,0,0,0-.53,1.75v6.11a2.8,2.8,0,0,0,.5,1.74,1.87,1.87,0,0,0,1.59.65,2.05,2.05,0,0,0,1.11-.27,1.71,1.71,0,0,0,.65-.92,7.08,7.08,0,0,0,.33-1.73q.09-1.07.09-2.66,0-1.43,0-2.45a6.3,6.3,0,0,0-.26-1.67,1.78,1.78,0,0,0-.65-1A2.15,2.15,0,0,0,314.25,113.38Z"/><path class="cls-4" d="M327.22,126.6V111.23h2.46v6.67h1.06a6,6,0,0,0,.84-.06,2.21,2.21,0,0,0,.83-.3,2.45,2.45,0,0,0,.72-.68,3.47,3.47,0,0,0,.51-1.2l1.18-4.43h2.37L336,115.69a6.45,6.45,0,0,1-.83,1.89,2.43,2.43,0,0,1-1.32,1,2.3,2.3,0,0,1,1.51,1.06,7.83,7.83,0,0,1,.79,2l1.34,5H335L334,122.36a4.79,4.79,0,0,0-.47-1.23,2.15,2.15,0,0,0-.65-.73,2.32,2.32,0,0,0-.83-.34,4.73,4.73,0,0,0-1-.09h-1.4v6.64Z"/><path class="cls-4" d="M345.26,125.26a3.52,3.52,0,0,1-1.42,1.18,4.48,4.48,0,0,1-1.79.34,3.11,3.11,0,0,1-1.62-.39,3,3,0,0,1-1-1,4.59,4.59,0,0,1-.56-1.43,7.72,7.72,0,0,1-.17-1.64,8.32,8.32,0,0,1,.19-1.75,4.68,4.68,0,0,1,.65-1.59,3.56,3.56,0,0,1,1.28-1.17,4.25,4.25,0,0,1,2.09-.45h2.43v-2.06a2.24,2.24,0,0,0-.42-1.43,2,2,0,0,0-1.6-.53,2.25,2.25,0,0,0-1.22.37,1.72,1.72,0,0,0-.75,1.22l-2.34-.65a4,4,0,0,1,1.5-2.4,4.72,4.72,0,0,1,2.93-.87,4.9,4.9,0,0,1,3.22,1,4.13,4.13,0,0,1,1.14,3.32V126.6h-2.46v-1.34Zm0-5.77h-1.81a2.66,2.66,0,0,0-1.7.58,2.5,2.5,0,0,0-.73,2.07,2.59,2.59,0,0,0,.47,1.67,1.77,1.77,0,0,0,1.46.58,2.18,2.18,0,0,0,1.73-.65,2.64,2.64,0,0,0,.58-1.81Z"/><path class="cls-4" d="M352,130.46h-2.28v-5.7l.84-.28a3.22,3.22,0,0,0,.55-.64,4,4,0,0,0,.42-.92,7.6,7.6,0,0,0,.3-1.39q.11-.83.17-2.07l.31-8.26h8.29v13.21h1.12v6h-2.24V126.6H352Zm6.14-17.08h-3.46l-.31,6.17q-.09,1.68-.28,2.88a5.93,5.93,0,0,1-.62,2h4.67Z"/><path class="cls-4" d="M369.75,125.26a3.52,3.52,0,0,1-1.42,1.18,4.48,4.48,0,0,1-1.79.34,3.11,3.11,0,0,1-1.62-.39,3,3,0,0,1-1-1,4.59,4.59,0,0,1-.56-1.43,7.72,7.72,0,0,1-.17-1.64,8.32,8.32,0,0,1,.19-1.75A4.68,4.68,0,0,1,364,119a3.56,3.56,0,0,1,1.28-1.17,4.25,4.25,0,0,1,2.09-.45h2.43v-2.06a2.24,2.24,0,0,0-.42-1.43,2,2,0,0,0-1.6-.53,2.25,2.25,0,0,0-1.22.37,1.72,1.72,0,0,0-.75,1.22l-2.34-.65a4,4,0,0,1,1.5-2.4,4.72,4.72,0,0,1,2.93-.87,4.9,4.9,0,0,1,3.22,1,4.13,4.13,0,0,1,1.14,3.32V126.6h-2.46v-1.34Zm0-5.77H368a2.66,2.66,0,0,0-1.7.58,2.5,2.5,0,0,0-.73,2.07,2.59,2.59,0,0,0,.47,1.67,1.77,1.77,0,0,0,1.46.58,2.18,2.18,0,0,0,1.73-.65,2.64,2.64,0,0,0,.58-1.81Z"/><path class="cls-4" d="M378.94,126.81a5,5,0,0,1-1.67-.25,4,4,0,0,1-1.2-.65,3.15,3.15,0,0,1-.79-1,5.18,5.18,0,0,1-.45-1.11,7.27,7.27,0,0,1-.16-.93q-.06-.56-.08-1.23t0-1.36c0-.46,0-.88,0-1.28s0-1.05,0-1.6,0-1.07.08-1.57.08-1,.14-1.36a4.26,4.26,0,0,1,.25-1,3.8,3.8,0,0,1,1.43-1.87,4.78,4.78,0,0,1,2.74-.69,3.94,3.94,0,0,1,3.29,1.25,5.24,5.24,0,0,1,1,3.33l-2.56.34a3.35,3.35,0,0,0-.48-2,1.56,1.56,0,0,0-1.31-.62,2,2,0,0,0-1.07.28,2,2,0,0,0-.73,1,6.65,6.65,0,0,0-.25,1.83q-.06,1.36-.09,3.22,0,1,0,2a6.29,6.29,0,0,0,.19,1.5,2.28,2.28,0,0,0,.66,1.07,1.85,1.85,0,0,0,1.25.39,1.48,1.48,0,0,0,1.37-.69,3.58,3.58,0,0,0,.42-1.87l2.52.44a4.78,4.78,0,0,1-1.14,3.26A4.46,4.46,0,0,1,378.94,126.81Z"/><path class="cls-4" d="M389.69,113.38V126.6h-2.46V113.38H384V111.2h9v2.18Z"/><path class="cls-4" d="M399.31,111a5.64,5.64,0,0,1,1,.11,2.81,2.81,0,0,1,1.13.5,3.61,3.61,0,0,1,1,1.14,5.34,5.34,0,0,1,.59,2q.09.93.11,2t0,1.93q0,1.68-.08,3.16a9.12,9.12,0,0,1-.46,2.57,3.74,3.74,0,0,1-1.19,1.73,3.56,3.56,0,0,1-2.26.64,3.42,3.42,0,0,1-1.55-.33,2.89,2.89,0,0,1-1.09-1h-.06v7.1H394V111.17h2.46v1.18l.06,0a4,4,0,0,1,1.05-1A3.37,3.37,0,0,1,399.31,111Zm-.83,2.4a1.85,1.85,0,0,0-1.56.68,2.77,2.77,0,0,0-.53,1.75v6.11a2.8,2.8,0,0,0,.5,1.74,1.87,1.87,0,0,0,1.59.65,2,2,0,0,0,1.11-.27,1.71,1.71,0,0,0,.65-.92,7,7,0,0,0,.33-1.73q.09-1.07.09-2.66,0-1.43,0-2.45a6.25,6.25,0,0,0-.26-1.67,1.78,1.78,0,0,0-.65-1A2.15,2.15,0,0,0,398.48,113.38Z"/><path class="cls-4" d="M410.09,111a5.66,5.66,0,0,1,2.14.34,3.33,3.33,0,0,1,1.33,1,3.75,3.75,0,0,1,.72,1.43,9.25,9.25,0,0,1,.28,1.79c0,.6.07,1.25.09,1.93s0,1.3,0,1.84a33.94,33.94,0,0,1-.19,3.55,5.17,5.17,0,0,1-.63,2,3.67,3.67,0,0,1-1.14,1.21,4.14,4.14,0,0,1-1.45.59,7.92,7.92,0,0,1-1.53.15,5,5,0,0,1-1.67-.25,4,4,0,0,1-1.21-.65,3.37,3.37,0,0,1-.81-1,4.86,4.86,0,0,1-.47-1.11,7.51,7.51,0,0,1-.16-.93c0-.37-.07-.78-.08-1.23s0-.9,0-1.36,0-.88,0-1.28,0-1.05,0-1.6.05-1.07.09-1.57.09-1,.16-1.36a4.33,4.33,0,0,1,.25-1,3.75,3.75,0,0,1,1.47-1.87A5,5,0,0,1,410.09,111Zm-.06,2.28a2.32,2.32,0,0,0-1.13.28,1.83,1.83,0,0,0-.79,1,6.3,6.3,0,0,0-.25,1.82q-.06,1.38-.09,3.25,0,1,0,2a6.3,6.3,0,0,0,.19,1.51,1.91,1.91,0,0,0,2,1.43,1.79,1.79,0,0,0,1.14-.39,2.37,2.37,0,0,0,.74-1,3,3,0,0,0,.12-.58q.06-.42.11-1c0-.38.05-.79.06-1.23s0-.87,0-1.31,0-.86,0-1.29,0-.83,0-1.23,0-.74-.06-1.06a3.54,3.54,0,0,0-.14-.75A1.86,1.86,0,0,0,410,113.26Z"/><path class="cls-4" d="M417,126.6V111.2h4.11a5.29,5.29,0,0,1,3.71,1.11,4,4,0,0,1,1.18,3.1,3.91,3.91,0,0,1-.36,1.79,3.35,3.35,0,0,1-1.14,1.23h0a2.44,2.44,0,0,1,1.29,1.36,5.87,5.87,0,0,1,.36,2.13,4.49,4.49,0,0,1-1.28,3.55A5.83,5.83,0,0,1,421,126.6Zm6.54-11.22a1.87,1.87,0,0,0-.58-1.5,3,3,0,0,0-2-.5h-1.46v4.08h1.43a3,3,0,0,0,2-.53A2,2,0,0,0,423.53,115.38Zm.28,6.36a2.33,2.33,0,0,0-.53-1.64,2.84,2.84,0,0,0-2.09-.58h-1.68v4.74h1.74a3.92,3.92,0,0,0,1.34-.19,1.86,1.86,0,0,0,.78-.51,1.6,1.6,0,0,0,.36-.79A6.27,6.27,0,0,0,423.82,121.73Z"/><path class="cls-4" d="M428.74,126.6V111.2h2.56v5.86h1.34a7.34,7.34,0,0,1,2.62.39,3.94,3.94,0,0,1,1.56,1,3.42,3.42,0,0,1,.76,1.47,7.56,7.56,0,0,1,.2,1.77,8.6,8.6,0,0,1-.22,2,3.54,3.54,0,0,1-.78,1.54,3.58,3.58,0,0,1-1.53,1,7.5,7.5,0,0,1-2.46.34Zm2.56-2.34h1.34A3.54,3.54,0,0,0,434,124a2,2,0,0,0,.81-.59,1.9,1.9,0,0,0,.37-.79,4.11,4.11,0,0,0,.09-.87,4.47,4.47,0,0,0-.09-.92,1.62,1.62,0,0,0-.39-.78,2.09,2.09,0,0,0-.84-.53,4.14,4.14,0,0,0-1.42-.2h-1.28Zm7.79,2.34V111.2h2.56V126.6Z"/><path class="cls-4" d="M450.65,126.6l-2.21-5.33-2.34,5.33h-2.71l3.77-7.85-3.65-7.54h2.77l2.15,5.08,2-5.08h2.87l-3.55,7.51,3.62,7.88Z"/><path class="cls-4" d="M465.57,129.18a6,6,0,0,1-1.18,2.51,3.06,3.06,0,0,1-2.46,1H461v-2.12h.62a1.41,1.41,0,0,0,1.26-.58,6.81,6.81,0,0,0,.73-2.13l.25-1.09-4.08-15.52h2.62l1.31,5.89,1.25,5.33H465l1.15-5.39,1.28-5.83H470Z"/><path class="cls-4" d="M475.48,126.81a5,5,0,0,1-1.67-.25,4,4,0,0,1-1.2-.65,3.14,3.14,0,0,1-.79-1,5.26,5.26,0,0,1-.45-1.11,7,7,0,0,1-.16-.93q-.06-.56-.08-1.23t0-1.36c0-.46,0-.88,0-1.28s0-1.05,0-1.6,0-1.07.08-1.57.08-1,.14-1.36a4.34,4.34,0,0,1,.25-1,3.81,3.81,0,0,1,1.43-1.87,4.78,4.78,0,0,1,2.74-.69,3.94,3.94,0,0,1,3.29,1.25,5.24,5.24,0,0,1,1,3.33l-2.56.34a3.36,3.36,0,0,0-.48-2,1.56,1.56,0,0,0-1.31-.62,1.74,1.74,0,0,0-1.79,1.27,6.64,6.64,0,0,0-.25,1.83q-.06,1.36-.09,3.22,0,1,0,2a6.29,6.29,0,0,0,.19,1.5,2.28,2.28,0,0,0,.66,1.07,1.85,1.85,0,0,0,1.25.39,1.48,1.48,0,0,0,1.37-.69,3.58,3.58,0,0,0,.42-1.87l2.52.44a4.78,4.78,0,0,1-1.14,3.26A4.46,4.46,0,0,1,475.48,126.81Z"/><path class="cls-4" d="M480.65,125.29a7.82,7.82,0,0,0,1.07-.84,3.23,3.23,0,0,0,.67-.92,4.05,4.05,0,0,0,.34-1.26,15.33,15.33,0,0,0,.09-1.87V111.2H491V126.6h-2.46V113.38h-3.46v7.1a15.83,15.83,0,0,1-.17,2.51,6.38,6.38,0,0,1-.56,1.82,4.18,4.18,0,0,1-1,1.32,6.92,6.92,0,0,1-1.57,1Z"/><path class="cls-4" d="M498.07,129.18a6,6,0,0,1-1.18,2.51,3.06,3.06,0,0,1-2.46,1h-.94v-2.12h.62a1.41,1.41,0,0,0,1.26-.58,6.81,6.81,0,0,0,.73-2.13l.25-1.09-4.08-15.52h2.62l1.31,5.89,1.25,5.33h.09l1.15-5.39L500,111.2h2.53Z"/><path class="cls-4" d="M506.48,113.38V126.6H504V111.2h8v2.18Z"/></g></g></svg>