<svg width="396" height="288" viewBox="0 0 396 288" fill="none" xmlns="http://www.w3.org/2000/svg">
<g clip-path="url(#clip0)">
<path d="M28.4 53.1C61.9 3.89999 140.8 -3.8 191.4 33.7C241.9 71.2 280.6 106.2 329.3 106.8C378 107.4 443.7 194.7 339.3 255.4C234.8 316.1 105.3 279.7 56.1 239.6C6.7 199.5 -24 129.9 28.4 53.1Z" fill="#EFF5FF"/>
<path opacity="0.2" d="M99.9 180.4L233.4 254.2C234.9 255.1 237.3 255.3 238.6 254.4L322.6 205.9C323.9 205 323.7 203.7 322.2 202.9L188.7 129.4C187.2 128.5 184.8 128.3 183.5 129.2L99.5 177.4C98.2 178.2 98.4 179.5 99.9 180.4Z" fill="#253C77"/>
<path d="M315.2 91.7L194.9 22.4C192.7 21.2 191 21.9 191 24V117.1L319 193L319.1 97.9C319.1 95.7 317.4 93 315.2 91.7Z" fill="#1A6FB7"/>
<path d="M189.2 120.4L111.9 167.7C110.7 166.7 110 168.7 111.4 169L232.9 239C235 240.8 238 240 240.1 238.7L319 193L189.2 120.4Z" fill="#1A6FB7"/>
<path d="M317.4 191.8L189.2 118V25C189.2 22.8 190.9 22.1 193.1 23.4L313.4 92.7C315.6 93.9 317.3 96.7 317.3 98.8V191.8H317.4Z" fill="url(#paint0_linear)"/>
<path d="M312.5 184.8L193.9 116.6V28.6L312.5 96.8V184.8Z" fill="url(#paint1_linear)"/>
<path d="M313.1 186.4L193.9 117.2V28.1L313.1 97.3V186.4Z" fill="url(#paint2_linear)"/>
<path opacity="0.03" d="M183 130.9L140.7 65.3L232.6 -4.29999L274.9 61.4L183 130.9Z" fill="white"/>
<path opacity="0.03" d="M273 179.5L265.6 167.9L357.6 97.5L365.1 109.1L273 179.5Z" fill="white"/>
<g opacity="0.03">
<g opacity="0.03">
<path opacity="0.03" d="M184.1 130L142.5 65.4L232.7 -3.10001L274.3 61.6L184.1 130Z" fill="white"/>
<path opacity="0.03" d="M272.6 177.1L265.3 165.8L355.6 97.2L363 108.5L272.6 177.1Z" fill="white"/>
</g>
</g>
<path opacity="0.25" d="M253.6 61.6C253.1 61.3 252.7 60.7 252.7 60.3V60C252.7 59.5 253.1 59.3 253.6 59.6C254.1 59.9 254.5 60.5 254.5 60.9V61.2C254.4 61.8 254 61.9 253.6 61.6Z" fill="black"/>
<path d="M189.2 118L317.4 191.8L240.1 236.3C238 237.5 234.7 237.6 232.9 236.6L111.4 166.7C109.6 165.7 109.8 163.8 111.9 162.6L189.2 118Z" fill="url(#paint3_linear)"/>
<path d="M184.6 136.3L276.3 189.2L280.4 186.9L188.7 134L184.6 136.3Z" fill="#5A9CDF" fill-opacity="0.452"/>
<path d="M174.4 142.1L260.6 191.7L264.7 189.4L178.5 139.8L174.4 142.1Z" fill="#5A9CDF" fill-opacity="0.452"/>
<path d="M168 145.8L269.5 204.2L273.6 201.9L172.1 143.5L168 145.8Z" fill="#5A9CDF" fill-opacity="0.452"/>
<path d="M161.4 149.7L262.9 208.1L267 205.8L165.5 147.4L161.4 149.7Z" fill="#5A9CDF" fill-opacity="0.452"/>
<path d="M154.9 153.4L256.4 211.8L260.5 209.5L159 151.1L154.9 153.4Z" fill="#5A9CDF" fill-opacity="0.452"/>
<path d="M281.9 192.5L286 194.8L290.1 192.5L286 190.2L281.9 192.5Z" fill="#5A9CDF" fill-opacity="0.452"/>
<path d="M267.5 195.6L275.9 200.5L280 198.2L271.6 193.3L267.5 195.6Z" fill="#5A9CDF" fill-opacity="0.452"/>
<path d="M178.7 0.600004L202.6 14.4C203.6 15 204.5 16.4 204.5 17.6L204.3 42.3C204.3 43.2 203.4 44.6 201.9 44L188.8 36.9L183.5 42.5L182.9 33.3L178.7 30.7C177.5 30 176.5 28.3 176.5 26.9V1.8C176.5 0.500004 177.5 -0.0999964 178.7 0.600004Z" fill="white"/>
<path d="M178.7 0.600006C182.8 2.80001 186.9 5.10001 191 7.40001C193.1 8.50001 195.1 9.70001 197.1 10.9L200.1 12.7L201.6 13.6L202.4 14L202.8 14.2C202.9 14.3 203.1 14.4 203.2 14.5C203.7 14.9 204.1 15.4 204.4 16C204.7 16.6 204.9 17.2 204.9 17.9L204.8 21.4C204.7 23.7 204.7 26.1 204.7 28.4C204.6 33.1 204.5 37.7 204.3 42.4C204.2 37.7 204.1 33.1 204.1 28.4C204.1 26.1 204.1 23.7 204.1 21.4V17.9C204.1 17.4 203.9 16.9 203.7 16.4C203.5 15.9 203.1 15.5 202.7 15.1C202.6 15 202.5 14.9 202.4 14.9L202 14.7L201.3 14.2L199.8 13.3L196.8 11.5C194.8 10.3 192.8 9.10001 190.7 7.90001C186.7 5.50001 182.7 3.10001 178.7 0.600006Z" fill="#4084C9"/>
<path d="M186.1 21L188.4 24.5L193.2 21.3" stroke="white" stroke-width="3.2967"/>
<path d="M196.7 24.8C196.7 22.6 195 19.9 193 18.8C191.1 17.9 189.5 18.6 189.3 20.4L189.2 20.3C188.9 18.2 187.4 15.9 185.5 15C183.4 14 181.8 14.9 181.8 17.2C181.8 18.3 182.2 19.4 182.8 20.5C183 20.8 189.3 29.8 189.3 29.8C189.3 29.8 193.9 27.8 195.4 27.2C196.1 27 196.7 26.1 196.7 24.8Z" fill="url(#paint4_linear)"/>
<path d="M259.2 177L211.4 149.5C210.3 148.9 209.7 147.8 209.7 146.7V107.2C209.7 106.2 210.8 105.6 211.6 106.1L259.2 133.5C260.3 134.1 261 135.3 261 136.6V176.1C260.9 176.9 260 177.5 259.2 177Z" fill="white"/>
<path d="M211.6 106C218.7 109.9 225.9 113.9 233 117.9L254.3 130.1C256.1 131.2 257.8 132.1 259.7 133.2C260.6 133.8 261.2 135 261.3 136.1C261.3 137.2 261.3 138.1 261.3 139.2C261.3 143.3 261.3 147.4 261.2 151.5L261.1 163.7L260.9 176L260.6 163.7L260.5 151.5C260.4 147.4 260.5 143.3 260.4 139.2C260.4 138.2 260.4 137.2 260.4 136.2C260.3 135.3 259.9 134.4 259.1 134C257.4 133 255.5 132 253.8 131L232.6 118.6C225.6 114.4 218.5 110.3 211.6 106Z" fill="#1A6FB7"/>
<path d="M236.8 163.5L246 183.9L247.2 169.1C253.6 163.5 233.9 160.2 236.8 163.5Z" fill="white"/>
<path d="M247.4 145.7L247.6 142.5L221.4 127.3V130.7L247.4 145.7Z" fill="url(#paint5_linear)"/>
<path d="M240.6 151.5L240.8 148L221.8 136.4L221.6 139.7L240.6 151.5Z" fill="url(#paint6_linear)"/>
<path opacity="0.2" d="M206.8 202.1L135.1 243.5L16.9 175.4L88.6 134L206.8 202.1Z" fill="#253C77"/>
<path d="M206.8 187.9L135.1 229.3L16.9 161.2L88.6 119.8L206.8 187.9Z" fill="#FDFEFF"/>
<g opacity="0.552">
<path opacity="0.552" d="M140.2 184.4L116 198.6L111.9 196.4L136.2 182.2L140.2 184.4Z" fill="#73B2F3"/>
<path opacity="0.552" d="M117.7 146.2L70.4 173.4L67.1 171.1L114.4 143.9L117.7 146.2Z" fill="#73B2F3"/>
<path opacity="0.552" d="M140 160L92.9 187L89.4 185L136.7 157.8L140 160Z" fill="#73B2F3"/>
<path opacity="0.552" d="M127.7 152L80.4 179.2L77.1 176.9L124.4 149.7L127.7 152Z" fill="#73B2F3"/>
<path opacity="0.552" d="M141.7 171.2L114.3 186.9L110.7 184.7L138.4 169L141.7 171.2Z" fill="#73B2F3"/>
<path opacity="0.552" d="M160.7 184.1L133.3 199.8L129.7 197.6L157.4 181.9L160.7 184.1Z" fill="#73B2F3"/>
</g>
<path d="M97.3 139.3L93.3 141.7L96.2 143.4L93 145.2L90.1 143.5L87.5 145L85 143.6L87.6 142.1L86.2 141.3L83.6 142.8L81.1 141.4L83.7 139.9L74.9 134.7L81.9 130.7C83.9 129.6 86 128.9 88.3 128.8C90.5 128.7 92.6 129.2 94.2 130.2C96 131.2 96.8 132.3 96.6 133.6C96.4 134.8 95.4 136 93.3 137.2L89.3 139.5L90.7 140.3L94.7 137.9L97.3 139.3ZM86.9 137.9L90.7 135.7C91.8 135 92.5 134.4 92.5 133.7C92.6 133 92 132.5 91.1 131.9C90.2 131.4 89.1 131.1 87.9 131.1C86.8 131.1 85.6 131.4 84.6 131.9L80.6 134.2L86.9 137.9Z" fill="#B1D4F8"/>
<path opacity="0.23" d="M46.2 165.2L96.7 194.3C97.7 194.9 97.8 195.8 96.9 196.3L66 214.1C65.1 214.6 63.6 214.6 62.6 214L12.1 184.9C11.5 184.5 11.2 184 11.3 183.6L42.8 165.1C43.6 164.6 45.2 164.6 46.2 165.2Z" fill="#253C77"/>
<path d="M13.1 175.6L62.4 204C63.4 204.6 64.9 204.7 65.8 204.1L96 186.7C96.9 186.2 96.7 185.4 95.7 184.8L46.4 156.4C45.4 155.8 43.9 155.7 43 156.3L12.8 173.7C12 174.1 12.1 175 13.1 175.6Z" fill="url(#paint7_linear)"/>
<path d="M13.1 175.6L62.4 204C63.4 204.6 64.9 204.7 65.8 204.1L96 186.7C96.9 186.2 96.7 185.4 95.7 184.8L46.4 156.4C45.4 155.8 43.9 155.7 43 156.3L12.8 173.7C12 174.1 12.1 175 13.1 175.6Z" fill="url(#paint8_linear)"/>
<path d="M13.5 175.5L23.9 181.4L34.2 187.3L54.8 199.2L59.9 202.2L62.5 203.7C63.3 204.2 64.3 204.4 65.2 204.3C65.4 204.3 65.6 204.2 65.9 204.1C66.1 204 66.3 203.8 66.6 203.8L67.9 203.1L70.5 201.6L75.7 198.6L86 192.7L96.4 186.8L86.1 192.8L75.8 198.8L70.7 201.8L68.1 203.3L66.8 204C66.6 204.1 66.4 204.3 66.1 204.4C65.8 204.5 65.6 204.6 65.4 204.7C64.4 204.9 63.3 204.7 62.4 204.1L59.8 202.6L54.7 199.6L34.1 187.7L23.8 181.7L13.5 175.5Z" fill="white"/>
<path d="M62.1 191.8L70.6 196.7L67.2 198.7L58.7 193.8L62.1 191.8Z" fill="white"/>
<path d="M50.2 184.9L58.7 189.8L55.3 191.8L46.8 186.9L50.2 184.9Z" fill="white"/>
<path d="M38.3 178L46.8 182.9L43.4 184.9L34.9 180L38.3 178Z" fill="white"/>
<path d="M26.4 171.2L34.9 176.1L31.5 178.1L23 173.2L26.4 171.2Z" fill="white"/>
<path d="M47.7 166.6C47.7 166.5 47.8 166.3 48 166.2C48.1 166.1 48.3 165.9 48.5 165.8C48.7 165.7 48.9 165.6 49.2 165.5C49.5 165.4 49.7 165.4 50 165.4C50.3 165.4 50.6 165.2 50.6 165C50.6 164.8 50.2 164.7 49.9 164.7C49.5 164.7 49.1 164.8 48.7 164.9C48.4 165 48 165.2 47.7 165.3C47.4 165.5 47.1 165.7 47 165.9C46.8 166.1 46.7 166.3 46.7 166.6C46.7 166.8 46.9 167 47.3 167C47.3 166.9 47.7 166.8 47.7 166.6Z" fill="white"/>
<path d="M45.2 166.2C45.4 165.7 45.9 165.2 46.6 164.8C47.3 164.4 48.2 164.1 49.1 164C49.4 164 49.7 163.7 49.6 163.5C49.5 163.3 49.2 163.2 48.8 163.2C47.7 163.4 46.5 163.7 45.7 164.2C44.8 164.7 44.2 165.3 44 166C43.9 166.2 44.1 166.4 44.5 166.5C44.8 166.5 45.2 166.4 45.2 166.2Z" fill="white"/>
<path d="M42.7 165.7C43 164.9 43.7 164.2 44.8 163.6C45.8 163 47.1 162.6 48.4 162.4C48.7 162.4 49 162.1 48.9 161.9C48.8 161.7 48.5 161.6 48.1 161.6C46.6 161.8 45.1 162.3 43.9 163C42.7 163.7 41.9 164.5 41.5 165.4C41.4 165.6 41.6 165.8 42 165.9C42.2 166 42.6 165.9 42.7 165.7Z" fill="white"/>
<path d="M40.1 165.3C40.6 164.3 41.5 163.3 42.8 162.6C44.2 161.8 45.8 161.3 47.5 161C47.8 161 48.1 160.7 48 160.5C47.9 160.3 47.5 160.2 47.2 160.2C45.2 160.5 43.4 161.1 41.9 162C40.4 162.9 39.3 164 38.8 165C38.7 165.2 38.9 165.4 39.3 165.5C39.6 165.6 40 165.5 40.1 165.3Z" fill="white"/>
<path d="M84.7 185.8L86.3 184.9L83.1 183L81.5 183.9L83.1 184.8L81.5 185.7L83.1 186.6L81.5 187.5L83.1 188.4L86.3 186.6L84.7 185.8Z" fill="white"/>
<path d="M79.9 186.7L81.5 185.8L79.9 184.9L81.5 184L79.9 183.1L81.5 182.2L79.9 181.3L76.7 183.1L78.3 184L76.7 184.9L75.1 184L71.9 185.8L73.5 186.7L75.1 185.8L76.7 186.7L78.3 185.8L79.9 186.7Z" fill="white"/>
<path d="M81.5 187.7L79.9 186.8L78.3 187.7L79.9 188.6L81.5 187.7Z" fill="white"/>
<path d="M78.3 187.7L76.7 186.8L75.1 187.7L76.7 188.6L78.3 187.7Z" fill="white"/>
<path d="M81.5 189.5L79.9 188.6L78.3 189.5L79.9 190.4L81.5 189.5Z" fill="white"/>
<path d="M177.4 103.4L137.8 80.7C136.7 80.1 136.1 79 136.1 77.8V37.2C136.1 36.2 137.2 35.6 138 36.1L177.4 58.7C178.5 59.3 179.2 60.5 179.2 61.9V102.5C179.2 103.3 178.2 103.9 177.4 103.4Z" fill="white"/>
<path d="M137.8 36C145.1 40 143.2 38.7 150.5 42.8L172.4 55.3C174.2 56.4 176 57.4 177.9 58.5C178.8 59.1 179.5 60.3 179.6 61.4C179.6 62.5 179.6 63.5 179.6 64.6C179.6 68.8 179.6 73 179.5 77.2L179.4 89.7L179.2 102.3L178.9 89.7L178.8 77.2C178.7 73 178.8 68.8 178.7 64.6C178.7 63.6 178.7 62.5 178.7 61.5C178.6 60.6 178.1 59.7 177.3 59.2C175.6 58.2 173.6 57.1 171.9 56.1L150.1 43.4C142.9 39.2 144.9 40.4 137.8 36Z" fill="#4084C9"/>
<path d="M143.1 83.9C143.2 86.2 143.5 99.9 143.5 100.1C143.5 100.3 151 89.6 151.7 88.6C165.5 92.7 137.1 77.8 143.1 83.9Z" fill="white"/>
<path d="M148.9 67.4L153.1 75.5L164.8 66.3" stroke="url(#paint9_linear)" stroke-width="2.886"/>
</g>
<defs>
<linearGradient id="paint0_linear" x1="334.001" y1="176.257" x2="185.352" y2="48.5642" gradientUnits="userSpaceOnUse">
<stop offset="0.0342041" stop-color="#3E6FBF"/>
<stop offset="0.998" stop-color="#A7CEFA"/>
</linearGradient>
<linearGradient id="paint1_linear" x1="192.096" y1="79.7263" x2="366.056" y2="156.584" gradientUnits="userSpaceOnUse">
<stop offset="0.00200321" stop-color="#C8E3FF"/>
<stop offset="0.9658" stop-color="#73B2F3"/>
</linearGradient>
<linearGradient id="paint2_linear" x1="148.578" y1="1.00201" x2="325.493" y2="180.142" gradientUnits="userSpaceOnUse">
<stop stop-color="#4971D0"/>
<stop offset="0.9658" stop-color="#263D78"/>
</linearGradient>
<linearGradient id="paint3_linear" x1="66.5199" y1="109.685" x2="245.231" y2="193.305" gradientUnits="userSpaceOnUse">
<stop offset="0.00200321" stop-color="#C0DEFE"/>
<stop offset="0.9658" stop-color="#81B6F4"/>
</linearGradient>
<linearGradient id="paint4_linear" x1="185.942" y1="15.415" x2="193.584" y2="28.4401" gradientUnits="userSpaceOnUse">
<stop stop-color="#A3DB33"/>
<stop offset="1" stop-color="#84C209"/>
</linearGradient>
<linearGradient id="paint5_linear" x1="230.79" y1="127.318" x2="238.231" y2="145.607" gradientUnits="userSpaceOnUse">
<stop stop-color="#A3DB33"/>
<stop offset="1" stop-color="#84C209"/>
</linearGradient>
<linearGradient id="paint6_linear" x1="227.979" y1="136.733" x2="234.528" y2="151.169" gradientUnits="userSpaceOnUse">
<stop stop-color="#A3DB33"/>
<stop offset="1" stop-color="#84C209"/>
</linearGradient>
<linearGradient id="paint7_linear" x1="45.9635" y1="154.909" x2="62.7511" y2="205.369" gradientUnits="userSpaceOnUse">
<stop stop-color="#A3DB33"/>
<stop offset="1" stop-color="#84C209"/>
</linearGradient>
<linearGradient id="paint8_linear" x1="7.5597" y1="131.978" x2="103.492" y2="230.746" gradientUnits="userSpaceOnUse">
<stop stop-color="#72A9E0"/>
<stop offset="1" stop-color="#4084C9"/>
</linearGradient>
<linearGradient id="paint9_linear" x1="155.912" y1="64.7037" x2="158.637" y2="75.8619" gradientUnits="userSpaceOnUse">
<stop stop-color="#A3DB33"/>
<stop offset="1" stop-color="#84C209"/>
</linearGradient>
<clipPath id="clip0">
<rect width="396" height="288" fill="white"/>
</clipPath>
</defs>
</svg>
